<svg xmlns:dc="http://purl.org/dc/elements/1.1/" xmlns:cc="http://creativecommons.org/ns#" xmlns:rdf="http://www.w3.org/1999/02/22-rdf-syntax-ns#" xmlns:svg="http://www.w3.org/2000/svg" xmlns="http://www.w3.org/2000/svg" xmlns:sodipodi="http://sodipodi.sourceforge.net/DTD/sodipodi-0.dtd" xmlns:inkscape="http://www.inkscape.org/namespaces/inkscape" width="100" height="100" viewBox="0 0 80 80" version="1.1" id="svg2" inkscape:version="0.48.2 r9819" sodipodi:docname="blank.svg">
  <metadata id="metadata10">
    <rdf:RDF>
      <cc:Work rdf:about="">
        <dc:format>image/svg+xml</dc:format>
        <dc:type rdf:resource="http://purl.org/dc/dcmitype/StillImage"/>
        <dc:title/>
      </cc:Work>
    </rdf:RDF>
  </metadata>
  <defs id="defs8"/>
  <sodipodi:namedview pagecolor="#ffffff" bordercolor="#666666" borderopacity="1" objecttolerance="10" gridtolerance="10" guidetolerance="10" inkscape:pageopacity="0" inkscape:pageshadow="2" inkscape:window-width="1366" inkscape:window-height="706" id="namedview6" showgrid="true" inkscape:zoom="3.3015542" inkscape:cx="49.102648" inkscape:cy="58.163281" inkscape:window-x="-8" inkscape:window-y="-8" inkscape:window-maximized="1" inkscape:current-layer="svg2" inkscape:snap-grids="false">
    <inkscape:grid type="xygrid" id="grid3807"/>
  </sodipodi:namedview>
  <g id="g3041" transform="matrix(-0.17401947,0.26422217,-0.26422217,-0.17401947,74.744753,-49.472039)" style="fill:#000000;stroke:none"/>
  <path style="fill:#000000;fill-opacity:1;stroke:none" d="M 44.46875 1.25 C 42.767223 1.25 41.4375 2.5417401 41.4375 4.15625 L 41.4375 20.8125 L 42.21875 20.8125 C 41.957478 21.568965 41.8125 22.373984 41.8125 23.21875 C 41.8125 27.256271 45.087485 30.53125 49.125 30.53125 C 53.162532 30.53125 56.4375 27.256271 56.4375 23.21875 C 56.4375 22.373984 56.292522 21.568965 56.03125 20.8125 L 56.78125 20.8125 L 56.78125 4.15625 C 56.78125 2.5417401 55.389038 1.25 53.6875 1.25 L 44.46875 1.25 z M 44.09375 6.875 C 44.09375 6.875 44.093538 6.930475 44.09375 6.9375 C 44.642117 7.0955444 45.022287 7.5915266 45 8.1875 C 44.98228 8.6612562 44.705019 9.0770664 44.3125 9.28125 C 44.427645 10.176685 44.567076 11.195232 44.84375 12.25 C 45.19458 13.587434 45.733451 14.914507 46.4375 15.875 C 47.141549 16.835494 48.005453 17.4445 49.15625 17.4375 C 50.30781 17.430429 51.127623 16.80609 51.8125 15.84375 C 52.497386 14.881409 52.987459 13.551938 53.3125 12.21875 C 53.565879 11.179446 53.711562 10.19756 53.8125 9.3125 C 53.372085 9.1117645 53.09375 8.6691536 53.09375 8.15625 L 53.09375 8.125 C 53.114629 7.5668845 53.493338 7.089585 54 6.9375 C 54.000115 6.9308538 54 6.875 54 6.875 L 54.6875 6.90625 C 54.6875 6.90625 54.687528 6.9347125 54.6875 6.9375 C 55.235867 7.0955443 55.616037 7.5915267 55.59375 8.1875 C 55.570481 8.8095396 55.125595 9.3186162 54.53125 9.40625 C 54.431075 10.310419 54.260555 11.337547 54 12.40625 C 53.66259 13.790193 53.175865 15.168614 52.40625 16.25 C 51.636645 17.331387 50.558429 18.11625 49.15625 18.125 C 47.753319 18.133614 46.633455 17.358602 45.84375 16.28125 C 45.054053 15.203899 44.551477 13.825038 44.1875 12.4375 C 43.905561 11.362696 43.743387 10.316018 43.625 9.40625 C 42.975625 9.3458844 42.46875 8.8161836 42.46875 8.15625 L 42.46875 8.125 C 42.48963 7.5668845 42.868339 7.089585 43.375 6.9375 C 43.374921 6.9344487 43.375 6.90625 43.375 6.90625 L 43.53125 6.90625 L 44.09375 6.875 z M 41.34375 31.5 C 40.263737 31.5 39.375 32.357474 39.375 33.4375 L 39.375 60.03125 L 46.28125 60.03125 C 46.434385 59.70127 46.661511 59.406958 46.96875 59.1875 C 47.486084 58.817984 48.183492 58.625 48.9375 58.625 C 49.691517 58.625 50.388928 58.817984 50.90625 59.1875 C 51.214915 59.407973 51.449792 59.699374 51.59375 60.03125 L 58.875 60.03125 L 58.875 33.4375 C 58.875 32.357474 58.017514 31.5 56.9375 31.5 L 41.34375 31.5 z M 35.125 32 C 34.31499 32 33.65625 32.627486 33.65625 33.4375 L 33.65625 55.4375 L 38.53125 55.4375 L 38.53125 33.4375 C 38.53125 32.627486 37.87252 32 37.0625 32 L 35.125 32 z M 61.1875 32 C 60.37749 32 59.71875 32.627479 59.71875 33.4375 L 59.71875 55.4375 L 64.59375 55.4375 L 64.59375 33.4375 C 64.59375 32.627479 63.93502 32 63.125 32 L 61.1875 32 z M 43.375 45.21875 C 44.183631 45.21875 44.843974 45.768754 45 46.53125 L 53.25 46.53125 C 53.406035 45.768754 54.066379 45.21875 54.875 45.21875 C 55.799146 45.21875 56.5625 45.982108 56.5625 46.90625 C 56.5625 47.8304 55.799146 48.5625 54.875 48.5625 C 54.073695 48.5625 53.413891 48.002185 53.25 47.25 L 45 47.25 C 44.836116 48.002185 44.176315 48.5625 43.375 48.5625 C 42.450855 48.5625 41.6875 47.8304 41.6875 46.90625 C 41.6875 45.982108 42.450855 45.21875 43.375 45.21875 z M 43.375 50.875 C 44.183631 50.875 44.843974 51.425005 45 52.1875 L 53.25 52.1875 C 53.406035 51.425005 54.066379 50.875 54.875 50.875 C 55.799146 50.875 56.5625 51.638358 56.5625 52.5625 C 56.5625 53.48665 55.799146 54.21875 54.875 54.21875 C 54.073695 54.21875 53.413891 53.658434 53.25 52.90625 L 45 52.90625 C 44.836116 53.658434 44.176315 54.21875 43.375 54.21875 C 42.450855 54.21875 41.6875 53.48665 41.6875 52.5625 C 41.6875 51.638358 42.450855 50.875 43.375 50.875 z M 34.59375 55.875 C 34.257834 55.875 34 56.164084 34 56.5 C 34 56.835916 34.257834 57.09375 34.59375 57.09375 C 34.929666 57.09375 35.21875 56.835916 35.21875 56.5 C 35.21875 56.164084 34.929666 55.875 34.59375 55.875 z M 63.75 55.875 C 63.414084 55.875 63.15625 56.164084 63.15625 56.5 C 63.15625 56.835916 63.414084 57.09375 63.75 57.09375 C 64.085916 57.09375 64.375 56.835916 64.375 56.5 C 64.375 56.164084 64.085916 55.875 63.75 55.875 z M 33.65625 57.5625 L 33.65625 59.78125 C 33.65625 60.591259 34.31499 61.21875 35.125 61.21875 L 37.0625 61.21875 C 37.87252 61.21875 38.53125 60.591259 38.53125 59.78125 L 38.53125 57.5625 L 33.65625 57.5625 z M 59.71875 57.5625 L 59.71875 59.78125 C 59.71875 60.591266 60.37749 61.21875 61.1875 61.21875 L 63.125 61.21875 C 63.93502 61.21875 64.59375 60.591266 64.59375 59.78125 L 64.59375 57.5625 L 59.71875 57.5625 z M 48.9375 59.3125 C 48.319162 59.3125 47.753175 59.511125 47.375 59.78125 C 47.265999 59.85911 47.170771 59.94287 47.09375 60.03125 L 50.75 60.03125 C 50.672978 59.94287 50.577754 59.85911 50.46875 59.78125 C 50.090583 59.511125 49.555849 59.3125 48.9375 59.3125 z M 39.375 61.09375 L 39.375 63.65625 C 39.375 64.379412 39.78746 64.979495 40.375 65.3125 C 40.355406 65.407178 40.34375 65.492499 40.34375 65.59375 L 40.34375 97.78125 C 40.34375 98.591268 41.002481 99.25 41.8125 99.25 L 46.6875 99.25 C 47.497519 99.25 48.125 98.591267 48.125 97.78125 L 48.125 65.59375 L 50.09375 65.59375 L 50.09375 97.78125 C 50.09375 98.591268 50.75248 99.25 51.5625 99.25 L 56.4375 99.25 C 57.24752 99.25 57.90625 98.591267 57.90625 97.78125 L 57.90625 65.59375 C 57.90625 65.503612 57.890615 65.428755 57.875 65.34375 C 57.873075 65.33327 57.877151 65.322892 57.875 65.3125 C 58.465949 64.982868 58.875 64.388871 58.875 63.65625 L 58.875 61.09375 L 51.6875 61.09375 C 51.588271 61.564358 51.321408 61.984712 50.90625 62.28125 C 50.388928 62.650766 49.691518 62.875 48.9375 62.875 C 48.183492 62.875 47.486084 62.650766 46.96875 62.28125 C 46.553599 61.984712 46.26343 61.564358 46.15625 61.09375 L 39.375 61.09375 z M 46.875 61.09375 C 46.95875 61.307981 47.126342 61.509883 47.375 61.6875 C 47.753175 61.957625 48.319162 62.15625 48.9375 62.15625 C 49.555849 62.15625 50.090582 61.957625 50.46875 61.6875 C 50.717414 61.509883 50.885002 61.307981 50.96875 61.09375 L 46.875 61.09375 z M 41.8125 92.40625 C 42.158136 92.40625 42.433287 92.64284 42.5 92.96875 L 46 92.96875 C 46.066688 92.64284 46.373114 92.40625 46.71875 92.40625 C 47.113762 92.40625 47.4375 92.730005 47.4375 93.125 C 47.4375 93.52002 47.113762 93.84375 46.71875 93.84375 C 46.376237 93.84375 46.070062 93.602754 46 93.28125 L 42.5 93.28125 C 42.42995 93.602754 42.155012 93.84375 41.8125 93.84375 C 41.417488 93.84375 41.09375 93.52002 41.09375 93.125 C 41.09375 92.730005 41.417488 92.40625 41.8125 92.40625 z M 51.5625 92.40625 C 51.908136 92.40625 52.214537 92.64284 52.28125 92.96875 L 55.78125 92.96875 C 55.847939 92.64284 56.154364 92.40625 56.5 92.40625 C 56.895012 92.40625 57.21875 92.730005 57.21875 93.125 C 57.21875 93.52002 56.895012 93.84375 56.5 93.84375 C 56.157486 93.84375 55.851313 93.602754 55.78125 93.28125 L 52.28125 93.28125 C 52.211199 93.602754 51.905014 93.84375 51.5625 93.84375 C 51.167489 93.84375 50.84375 93.52002 50.84375 93.125 C 50.84375 92.730005 51.167489 92.40625 51.5625 92.40625 z " transform="scale(0.8,0.8)" id="rect3877-4-8"/>
</svg>